<svg width="60" height="60" viewBox="0 0 60 60" fill="none" xmlns="http://www.w3.org/2000/svg">
<g clip-path="url(#clip0_2229_2023)">
<path fill-rule="evenodd" clip-rule="evenodd" d="M16.835 0C4.50833 0 0 4.50833 0 16.8317V43.1683C0 55.4917 4.50833 60 16.835 60H43.1567C55.4833 60 60 55.4917 60 43.1683V16.8317C60 4.50833 55.4917 0 43.165 0H16.835Z" fill="url(#paint0_linear_2229_2023)"/>
<path fill-rule="evenodd" clip-rule="evenodd" d="M26.1717 34.8H28.5801L27.3717 31.9883L26.1717 34.8ZM25.5784 36.2167L24.8634 37.85H23.2367L26.6967 30H28.1034L31.5501 37.85H29.8784L29.1734 36.2167H25.5784ZM51.7617 37.845H53.3334V30H51.7601L51.7617 37.845ZM45.5001 34.475H48.4001V33.045H45.5001V31.4367H49.7084V30.005H43.9284V37.85H49.8601V36.4183H45.5001V34.475ZM39.2517 35.4017L37.4701 30H36.1701L34.3867 35.4L32.6517 30.005H30.9551L33.6934 37.855H35.0117L36.7984 32.6983L38.5834 37.855H39.9134L42.6451 30.005H40.9917L39.2517 35.4017ZM20.8351 34.4967C20.8351 35.7733 20.2017 36.455 19.0484 36.455C17.8917 36.455 17.2534 35.755 17.2534 34.4417V30.005H15.6601V34.4967C15.6601 36.705 16.8867 37.9717 19.0267 37.9717C21.1884 37.9717 22.4267 36.6817 22.4267 34.43V30H20.8351V34.4967ZM11.8584 30H13.4517V37.855H11.8584V34.6667H8.26008V37.8567H6.66675V30H8.26008V33.1683H11.8601L11.8584 30ZM30.0001 20C24.4851 20 20.0001 15.5133 20.0001 10H21.4134C21.4134 14.7333 25.2651 18.5867 30.0001 18.5867C34.7351 18.5867 38.5867 14.735 38.5867 10H40.0001C40.0001 15.5133 35.5134 20 30.0001 20Z" fill="white"/>
</g>
<defs>
<linearGradient id="paint0_linear_2229_2023" x1="30" y1="0" x2="30" y2="60" gradientUnits="userSpaceOnUse">
<stop stop-color="#FB6361"/>
<stop offset="1" stop-color="#ED3E45"/>
</linearGradient>
<clipPath id="clip0_2229_2023">
<rect width="60" height="60" fill="white"/>
</clipPath>
</defs>
</svg>
